HIERARCHY
ROOT Hips
{
  OFFSET 46.568 99.1424 33.7022
  CHANNELS 6 Xposition Yposition Zposition Zrotation Xrotation Yrotation
  JOINT spine
  {
    OFFSET 0 8.30104 0.477351
    CHANNELS 3 Zrotation Xrotation Yrotation
    JOINT spine1
    {
      OFFSET 0 10.4565 0
      CHANNELS 3 Zrotation Xrotation Yrotation
      JOINT spine2
      {
        OFFSET 0 10.0192 0
        CHANNELS 3 Zrotation Xrotation Yrotation
        JOINT Neck
        {
          OFFSET 0 25.7235 1.22641
          CHANNELS 3 Zrotation Xrotation Yrotation
          JOINT Head
          {
            OFFSET 0 7.77175 0
            CHANNELS 3 Zrotation Xrotation Yrotation
            End Site
            {
              OFFSET 0 18.812 -6.20394
            }
          }
        }
        JOINT RightShoulder
        {
          OFFSET -4.2188 10.82 -0.587439
          CHANNELS 3 Zrotation Xrotation Yrotation
          JOINT RightArm
          {
            OFFSET 0 14.1914 0
            CHANNELS 3 Zrotation Xrotation Yrotation
            JOINT RightArmRoll
            {
              OFFSET 0 7.16408 0
              CHANNELS 3 Zrotation Xrotation Yrotation
              JOINT RightForeArm
              {
                OFFSET 0 20.8665 0
                CHANNELS 3 Zrotation Xrotation Yrotation
                JOINT RightForeArmRoll
                {
                  OFFSET 0 8.03921 0
                  CHANNELS 3 Zrotation Xrotation Yrotation
                  JOINT RightHand
                  {
                    OFFSET 0 16.133 0
                    CHANNELS 3 Zrotation Xrotation Yrotation
                    End Site
                    {
                      OFFSET 0 0 0
                    }
                  }
                }
              }
            }
          }
        }
        JOINT LeftShoulder
        {
          OFFSET 4.2188 10.82 -0.587439
          CHANNELS 3 Zrotation Xrotation Yrotation
          JOINT LeftArm
          {
            OFFSET 0 14.1914 0
            CHANNELS 3 Zrotation Xrotation Yrotation
            JOINT LeftArmRoll
            {
              OFFSET 0 7.16408 0
              CHANNELS 3 Zrotation Xrotation Yrotation
              JOINT LeftForeArm
              {
                OFFSET 0 20.8665 0
                CHANNELS 3 Zrotation Xrotation Yrotation
                JOINT LeftForeArmRoll
                {
                  OFFSET 0 8.03921 0
                  CHANNELS 3 Zrotation Xrotation Yrotation
                  JOINT LeftHand
                  {
                    OFFSET 0 16.133 0
                    CHANNELS 3 Zrotation Xrotation Yrotation
                    End Site
                    {
                      OFFSET 0 0 0
                    }
                  }
                }
              }
            }
          }
        }
      }
    }
  }
  JOINT RightUpLeg
  {
    OFFSET -7.35773 -1.34921 -1.13182
    CHANNELS 3 Zrotation Xrotation Yrotation
    JOINT RightUpLegRoll
    {
      OFFSET 0 18.9168 0
      CHANNELS 3 Zrotation Xrotation Yrotation
      JOINT RightLeg
      {
        OFFSET 0 -23.4256 0
        CHANNELS 3 Zrotation Xrotation Yrotation
        JOINT RightLegRoll
        {
          OFFSET 0 23.5023 0
          CHANNELS 3 Zrotation Xrotation Yrotation
          JOINT RightFoot
          {
            OFFSET 0 19.5617 0
            CHANNELS 3 Zrotation Xrotation Yrotation
            JOINT RightToeBase
            {
              OFFSET 0 16.3526 0
              CHANNELS 3 Zrotation Xrotation Yrotation
              End Site
              {
                OFFSET 0.00693125 7.91944 -0.912837
              }
            }
          }
        }
      }
    }
  }
  JOINT LeftUpLeg
  {
    OFFSET 7.35773 -1.34921 -1.13182
    CHANNELS 3 Zrotation Xrotation Yrotation
    JOINT LeftUpLegRoll
    {
      OFFSET 0 18.9169 0
      CHANNELS 3 Zrotation Xrotation Yrotation
      JOINT LeftLeg
      {
        OFFSET 0 23.4255 0
        CHANNELS 3 Zrotation Xrotation Yrotation
        JOINT LeftLegRoll
        {
          OFFSET 0 23.7195 0
          CHANNELS 3 Zrotation Xrotation Yrotation
          JOINT LeftFoot
          {
            OFFSET 0 19.3444 0
            CHANNELS 3 Zrotation Xrotation Yrotation
            JOINT LeftToeBase
            {
              OFFSET 0 16.3526 0
              CHANNELS 3 Zrotation Xrotation Yrotation
              End Site
              {
                OFFSET -0.0310629 7.91943 -0.912837
              }
            }
          }
        }
      }
    }
  }
}
MOTION
Frames: 4
Frame Time: 0.00208333
47.14 77.1302 12.0908 -2.81511 17.5 2.0557 0.664166 2.64004 0.0786202 1.33634 9.2828 0.03962 1.33999 10.9276 0.0169366 0.85274 -11.2339 0.719911 -1.9128 -10.9628 0.39369 59.2069 -5.03202 -3.14307 117.845 27.3509 -11.3775 -7.34454e-007 -2.2007e-007 -1.7258e-006 20.6618 55.6986 -13.6362 1.63108e-005 -1.88026e-006 -3.00805 8.02945 -4.95108 0.697568 -58.1039 -4.24522 2.57769 -109.692 26.1252 12.6818 -1.11366e-005 -4.35447e-007 1.16941e-007 -15.4878 47.8211 8.11031 1.88515e-006 -8.81036e-006 3 -8.02929 -4.9513 -0.697645 148.633 67.8839 36.4906 180 1.52567e-005 179.06 159.797 72.4525 -166.608 2.07562e-006 2.90996e-007 1.49451 -40.6815 78.2955 38.455 8.29986 27.6402 -3.55719 -134.328 67.7462 -46.5355 4.54188e-006 -4.6773e-006 -0.77758 -11.3789 -74.5836 -7.34694 -6.83866e-006 2.21035e-006 -1.59504 27.3948 75.6766 -29.2601 -8.45255 29.9878 3.43152 
47.1489 77.2836 12.166 -2.79798 17.4652 2.05027 0.661137 2.63055 0.0787234 1.33034 9.26382 0.0404472 1.33395 10.9087 0.01787 0.849119 -11.2017 0.712461 -1.92941 -10.9546 0.383194 59.219 -5.02515 -3.13964 117.898 27.466 -11.2335 -7.34454e-007 -2.2007e-007 -1.7258e-006 20.5201 55.1728 -13.3964 1.63108e-005 -1.88026e-006 -3.00805 8.02945 -4.95108 0.697568 -58.1341 -4.22284 2.56584 -109.711 26.1772 12.5941 -1.11366e-005 -4.35447e-007 1.16941e-007 -15.4727 47.4371 8.02525 1.88515e-006 -8.81036e-006 3 -8.02929 -4.9513 -0.697645 149.043 67.6504 36.0253 180 1.52567e-005 179.062 159.946 72.1593 -166.792 2.07562e-006 2.90996e-007 1.48491 -40.5009 78.2479 38.2747 8.30101 27.6559 -3.55768 -134.903 67.5554 -45.9261 4.54188e-006 -4.6773e-006 -0.776576 -11.3945 -74.2989 -7.31972 -6.83866e-006 2.21035e-006 -1.58371 27.3086 75.6311 -29.1702 -8.45448 30.0149 3.43287 
47.1537 77.4579 12.2433 -2.78133 17.4315 2.04441 0.658078 2.62084 0.0791759 1.32416 9.24441 0.042014 1.32772 10.8893 0.019548 0.846374 -11.1705 0.704032 -1.94378 -10.9463 0.372214 59.237 -5.01897 -3.13701 117.945 27.5798 -11.092 -7.34454e-007 -2.2007e-007 -1.7258e-006 20.3859 54.6548 -13.1659 1.63108e-005 -1.88026e-006 -3.00805 8.02945 -4.95108 0.697568 -58.1588 -4.1997 2.55313 -109.741 26.235 12.4979 -1.11366e-005 -4.35447e-007 1.16941e-007 -15.4547 47.0472 7.93993 1.88515e-006 -8.81036e-006 3 -8.02929 -4.9513 -0.697645 149.448 67.4173 35.565 180 1.52568e-005 179.064 160.095 71.864 -166.973 2.07562e-006 2.90996e-007 1.47519 -40.3154 78.1991 38.0909 8.30215 27.6714 -3.55826 -135.467 67.3626 -45.3278 4.54188e-006 -4.6773e-006 -0.775511 -11.4103 -74.0122 -7.29239 -6.83866e-006 2.21035e-006 -1.57226 27.2211 75.5845 -29.0788 -8.45649 30.0424 3.43472 
47.1601 77.6095 12.3148 -2.765 17.3992 2.03834 0.654916 2.61086 0.0799652 1.31767 9.22447 0.0442808 1.32119 10.8693 0.0219329 0.846102 -11.1397 0.694699 -1.95769 -10.9379 0.360576 59.2617 -5.01295 -3.13492 117.982 27.6927 -10.9534 -7.34454e-007 -2.2007e-007 -1.7258e-006 20.2597 54.1432 -12.9435 1.63108e-005 -1.88026e-006 -3.00805 8.02945 -4.95108 0.697568 -58.1782 -4.17545 2.53932 -109.782 26.3006 12.393 -1.11366e-005 -4.35447e-007 1.16941e-007 -15.4331 46.6455 7.85278 1.88515e-006 -8.81036e-006 3 -8.02929 -4.9513 -0.697645 149.846 67.1841 35.1107 180 1.52568e-005 179.066 160.242 71.5665 -167.153 2.07562e-006 2.90996e-007 1.46534 -40.1247 78.1489 37.9031 8.3033 27.687 -3.55893 -136.019 67.1679 -44.7399 4.54188e-006 -4.6773e-006 -0.77437 -11.4269 -73.7233 -7.26552 -6.83866e-006 2.21035e-006 -1.56065 27.1318 75.5367 -28.9857 -8.45862 30.0708 3.43726 
